<svg id="visual" viewBox="0 0 960 540" width="960" height="540" xmlns="http://www.w3.org/2000/svg" xmlns:xlink="http://www.w3.org/1999/xlink" version="1.1"><g stroke-width="1" stroke-linejoin="bevel"><path d="M438.7 290L383.7 297L467.3 331Z" fill="#3283b6" stroke="#3283b6"></path><path d="M383.7 297L308 336L467.3 331Z" fill="#00b2ff" stroke="#00b2ff"></path><path d="M318 318L308 336L383.7 297Z" fill="#282e35" stroke="#282e35"></path><path d="M475.7 465L531.3 363L467.3 331Z" fill="#34749f" stroke="#34749f"></path><path d="M467.3 331L530.3 213L438.7 290Z" fill="#282e35" stroke="#282e35"></path><path d="M308 336L475.7 465L467.3 331Z" fill="#345772" stroke="#345772"></path><path d="M438.7 290L376 192L383.7 297Z" fill="#222222" stroke="#222222"></path><path d="M383.7 297L376 192L318 318Z" fill="#20a2e6" stroke="#20a2e6"></path><path d="M318 318L215.3 228L308 336Z" fill="#2c92ce" stroke="#2c92ce"></path><path d="M530.3 213L376 192L438.7 290Z" fill="#345772" stroke="#345772"></path><path d="M531.3 363L530.3 213L467.3 331Z" fill="#00b2ff" stroke="#00b2ff"></path><path d="M475.7 465L541.3 475L531.3 363Z" fill="#20a2e6" stroke="#20a2e6"></path><path d="M531.3 363L616 219L530.3 213Z" fill="#356588" stroke="#356588"></path><path d="M308 336L276 461L475.7 465Z" fill="#2c92ce" stroke="#2c92ce"></path><path d="M475.7 465L467.3 540L541.3 475Z" fill="#00b2ff" stroke="#00b2ff"></path><path d="M541.3 475L587 452L531.3 363Z" fill="#345772" stroke="#345772"></path><path d="M493.7 136L392 131L376 192Z" fill="#345772" stroke="#345772"></path><path d="M376 192L215.3 228L318 318Z" fill="#282e35" stroke="#282e35"></path><path d="M276 461L378.7 540L475.7 465Z" fill="#00b2ff" stroke="#00b2ff"></path><path d="M378.7 540L467.3 540L475.7 465Z" fill="#3283b6" stroke="#3283b6"></path><path d="M682 540L611 425L587 452Z" fill="#345772" stroke="#345772"></path><path d="M587 452L611 425L531.3 363Z" fill="#356588" stroke="#356588"></path><path d="M530.3 213L493.7 136L376 192Z" fill="#2d3b48" stroke="#2d3b48"></path><path d="M276 461L336 540L378.7 540Z" fill="#282e35" stroke="#282e35"></path><path d="M493.7 136L487.3 124L392 131Z" fill="#00b2ff" stroke="#00b2ff"></path><path d="M232.3 96L215.3 228L376 192Z" fill="#222222" stroke="#222222"></path><path d="M308 336L154.3 333L276 461Z" fill="#2d3b48" stroke="#2d3b48"></path><path d="M635 221L616 219L531.3 363Z" fill="#3283b6" stroke="#3283b6"></path><path d="M530.3 213L574 81L493.7 136Z" fill="#31495d" stroke="#31495d"></path><path d="M493.7 136L574 81L487.3 124Z" fill="#3283b6" stroke="#3283b6"></path><path d="M611 425L635 221L531.3 363Z" fill="#34749f" stroke="#34749f"></path><path d="M616 219L574 81L530.3 213Z" fill="#345772" stroke="#345772"></path><path d="M215.3 228L154.3 333L308 336Z" fill="#356588" stroke="#356588"></path><path d="M276 461L195.3 492L336 540Z" fill="#282e35" stroke="#282e35"></path><path d="M132.7 406L195.3 492L276 461Z" fill="#356588" stroke="#356588"></path><path d="M154.3 333L132.7 406L276 461Z" fill="#282e35" stroke="#282e35"></path><path d="M215.3 228L112.7 218L154.3 333Z" fill="#2d3b48" stroke="#2d3b48"></path><path d="M154.3 333L120.7 328L132.7 406Z" fill="#3283b6" stroke="#3283b6"></path><path d="M232.3 96L156.3 196L215.3 228Z" fill="#345772" stroke="#345772"></path><path d="M112.7 218L120.7 328L154.3 333Z" fill="#2d3b48" stroke="#2d3b48"></path><path d="M635 221L574 81L616 219Z" fill="#34749f" stroke="#34749f"></path><path d="M487.3 124L377.7 25L392 131Z" fill="#31495d" stroke="#31495d"></path><path d="M377.7 25L232.3 96L392 131Z" fill="#282e35" stroke="#282e35"></path><path d="M392 131L232.3 96L376 192Z" fill="#00b2ff" stroke="#00b2ff"></path><path d="M724.7 452L728.7 337L611 425Z" fill="#222222" stroke="#222222"></path><path d="M611 425L728.7 337L635 221Z" fill="#00b2ff" stroke="#00b2ff"></path><path d="M635 221L755.7 148L574 81Z" fill="#2c92ce" stroke="#2c92ce"></path><path d="M471.3 0L377.7 25L487.3 124Z" fill="#222222" stroke="#222222"></path><path d="M85.7 137L112.7 218L156.3 196Z" fill="#00b2ff" stroke="#00b2ff"></path><path d="M156.3 196L112.7 218L215.3 228Z" fill="#00b2ff" stroke="#00b2ff"></path><path d="M132.7 406L160.3 540L195.3 492Z" fill="#34749f" stroke="#34749f"></path><path d="M195.3 492L160.3 540L336 540Z" fill="#3283b6" stroke="#3283b6"></path><path d="M682 540L587 452L541.3 475Z" fill="#282e35" stroke="#282e35"></path><path d="M682 540L724.7 452L611 425Z" fill="#282e35" stroke="#282e35"></path><path d="M467.3 540L682 540L541.3 475Z" fill="#34749f" stroke="#34749f"></path><path d="M574 81L471.3 0L487.3 124Z" fill="#20a2e6" stroke="#20a2e6"></path><path d="M377.7 25L351 0L232.3 96Z" fill="#356588" stroke="#356588"></path><path d="M471.3 0L358.7 0L377.7 25Z" fill="#34749f" stroke="#34749f"></path><path d="M358.7 0L351 0L377.7 25Z" fill="#2d3b48" stroke="#2d3b48"></path><path d="M728.7 337L749.7 201L635 221Z" fill="#34749f" stroke="#34749f"></path><path d="M574 81L656 0L471.3 0Z" fill="#34749f" stroke="#34749f"></path><path d="M792.7 295L749.7 201L728.7 337Z" fill="#2d3b48" stroke="#2d3b48"></path><path d="M838.3 381L789.3 351L724.7 452Z" fill="#2c92ce" stroke="#2c92ce"></path><path d="M724.7 452L789.3 351L728.7 337Z" fill="#00b2ff" stroke="#00b2ff"></path><path d="M789.3 351L792.7 295L728.7 337Z" fill="#222222" stroke="#222222"></path><path d="M682 540L743.7 540L724.7 452Z" fill="#356588" stroke="#356588"></path><path d="M232.3 96L85.7 137L156.3 196Z" fill="#20a2e6" stroke="#20a2e6"></path><path d="M112.7 218L40.7 213L120.7 328Z" fill="#356588" stroke="#356588"></path><path d="M0 439L58.7 540L132.7 406Z" fill="#34749f" stroke="#34749f"></path><path d="M106.7 0L85.7 137L232.3 96Z" fill="#282e35" stroke="#282e35"></path><path d="M824.3 136L755.7 148L749.7 201Z" fill="#356588" stroke="#356588"></path><path d="M749.7 201L755.7 148L635 221Z" fill="#2d3b48" stroke="#2d3b48"></path><path d="M351 0L220.3 0L232.3 96Z" fill="#345772" stroke="#345772"></path><path d="M85.7 137L40.7 213L112.7 218Z" fill="#2c92ce" stroke="#2c92ce"></path><path d="M132.7 406L58.7 540L160.3 540Z" fill="#20a2e6" stroke="#20a2e6"></path><path d="M0 351L132.7 406L120.7 328Z" fill="#31495d" stroke="#31495d"></path><path d="M755.7 148L656 0L574 81Z" fill="#2d3b48" stroke="#2d3b48"></path><path d="M0 246L0 351L120.7 328Z" fill="#00b2ff" stroke="#00b2ff"></path><path d="M789.3 351L883.3 305L792.7 295Z" fill="#3283b6" stroke="#3283b6"></path><path d="M873.3 243L824.3 136L749.7 201Z" fill="#00b2ff" stroke="#00b2ff"></path><path d="M800.3 540L838.3 381L724.7 452Z" fill="#2d3b48" stroke="#2d3b48"></path><path d="M0 117L0 246L40.7 213Z" fill="#34749f" stroke="#34749f"></path><path d="M40.7 213L0 246L120.7 328Z" fill="#20a2e6" stroke="#20a2e6"></path><path d="M0 351L0 439L132.7 406Z" fill="#222222" stroke="#222222"></path><path d="M743.7 540L800.3 540L724.7 452Z" fill="#20a2e6" stroke="#20a2e6"></path><path d="M873.3 243L749.7 201L792.7 295Z" fill="#2d3b48" stroke="#2d3b48"></path><path d="M755.7 148L747.7 0L656 0Z" fill="#34749f" stroke="#34749f"></path><path d="M220.3 0L106.7 0L232.3 96Z" fill="#2d3b48" stroke="#2d3b48"></path><path d="M85.7 137L0 117L40.7 213Z" fill="#356588" stroke="#356588"></path><path d="M0 439L0 540L58.7 540Z" fill="#356588" stroke="#356588"></path><path d="M883.3 305L789.3 351L838.3 381Z" fill="#20a2e6" stroke="#20a2e6"></path><path d="M883.3 305L873.3 243L792.7 295Z" fill="#20a2e6" stroke="#20a2e6"></path><path d="M960 349L883.3 305L838.3 381Z" fill="#00b2ff" stroke="#00b2ff"></path><path d="M0 112L0 117L85.7 137Z" fill="#282e35" stroke="#282e35"></path><path d="M824.3 136L747.7 0L755.7 148Z" fill="#282e35" stroke="#282e35"></path><path d="M106.7 0L0 112L85.7 137Z" fill="#2d3b48" stroke="#2d3b48"></path><path d="M106.7 0L0 0L0 112Z" fill="#345772" stroke="#345772"></path><path d="M960 483L960 349L838.3 381Z" fill="#00b2ff" stroke="#00b2ff"></path><path d="M883.3 305L960 204L873.3 243Z" fill="#00b2ff" stroke="#00b2ff"></path><path d="M873.3 243L960 204L824.3 136Z" fill="#20a2e6" stroke="#20a2e6"></path><path d="M824.3 136L888.3 0L747.7 0Z" fill="#222222" stroke="#222222"></path><path d="M960 349L960 204L883.3 305Z" fill="#282e35" stroke="#282e35"></path><path d="M800.3 540L960 483L838.3 381Z" fill="#2c92ce" stroke="#2c92ce"></path><path d="M960 113L888.3 0L824.3 136Z" fill="#31495d" stroke="#31495d"></path><path d="M960 204L960 135L824.3 136Z" fill="#20a2e6" stroke="#20a2e6"></path><path d="M800.3 540L960 540L960 483Z" fill="#222222" stroke="#222222"></path><path d="M960 135L960 113L824.3 136Z" fill="#3283b6" stroke="#3283b6"></path><path d="M960 113L960 0L888.3 0Z" fill="#3283b6" stroke="#3283b6"></path></g></svg>